<svg xmlns="http://www.w3.org/2000/svg" width="448" height="256" viewBox="0 0 448 256">
  <defs>
    <linearGradient id="lacquer" x1="0" y1="0" x2="1" y2="1">
      <stop offset="0" stop-color="#03122e"/>
      <stop offset="0.48" stop-color="#0b3978"/>
      <stop offset="1" stop-color="#020a1d"/>
    </linearGradient>
    <linearGradient id="sapphire" x1="0" y1="0" x2="0" y2="1">
      <stop offset="0" stop-color="#b9edff"/>
      <stop offset="0.38" stop-color="#278bd9"/>
      <stop offset="1" stop-color="#063d80"/>
    </linearGradient>
    <linearGradient id="ribbon" x1="0" y1="0" x2="1" y2="1">
      <stop offset="0" stop-color="#d2f5ff"/>
      <stop offset="0.5" stop-color="#369fe8"/>
      <stop offset="1" stop-color="#0751a1"/>
    </linearGradient>
    <pattern id="waves" width="72" height="42" patternUnits="userSpaceOnUse">
      <path d="M4 29c10-13 24-13 34 0 10-13 24-13 34 0" fill="none" stroke="#70b9d4" stroke-width="4" opacity=".22"/>
    </pattern>
  </defs>
  <rect x="8" y="8" width="432" height="240" rx="38" fill="#010613" stroke="#071b38" stroke-width="16"/>
  <rect x="22" y="22" width="404" height="212" rx="28" fill="url(#lacquer)" stroke="#d5aa55" stroke-width="8"/>
  <rect x="35" y="35" width="378" height="186" rx="18" fill="url(#waves)" stroke="#3186a9" stroke-width="4"/>
  <path d="M53 55h342M53 201h342" stroke="#d9f4dc" stroke-width="5" opacity=".46"/>
  <g transform="translate(45 50)">
    <circle cx="75" cy="78" r="62" fill="#020b22" stroke="#e1ba62" stroke-width="7"/>
    <g fill="url(#ribbon)" stroke="#062b61" stroke-width="5" stroke-linejoin="round">
      <path d="M26 40h40l20 80h-40z" transform="rotate(-15 46 80)"/>
      <path d="M56 30h40l20 80h-40z" transform="rotate(5 76 70)"/>
      <path d="M86 40h40l20 80h-40z" transform="rotate(25 106 80)"/>
    </g>
    <circle cx="76" cy="76" r="13" fill="#d8f7ff" stroke="#1878bf" stroke-width="5"/>
  </g>
  <g transform="translate(187 61)" stroke="#062754" stroke-width="5">
    <g transform="translate(0 93)">
      <ellipse cx="103" cy="23" rx="98" ry="26" fill="#031c46"/>
      <rect x="5" y="0" width="196" height="23" fill="#0757a2"/>
      <ellipse cx="103" rx="98" ry="26" fill="url(#sapphire)"/>
      <path d="M45-3c30 13 87 13 116 0" fill="none" stroke="#d6f5ff" stroke-width="6" opacity=".68"/>
    </g>
    <g transform="translate(12 49)">
      <ellipse cx="91" cy="23" rx="86" ry="24" fill="#03183c"/>
      <rect x="5" y="0" width="172" height="23" fill="#064c91"/>
      <ellipse cx="91" rx="86" ry="24" fill="url(#sapphire)"/>
      <path d="M42-3c27 11 72 11 99 0" fill="none" stroke="#d6f5ff" stroke-width="6" opacity=".68"/>
    </g>
    <g transform="translate(26 9)">
      <ellipse cx="77" cy="21" rx="72" ry="21" fill="#021432"/>
      <rect x="5" y="0" width="144" height="21" fill="#06417c"/>
      <ellipse cx="77" rx="72" ry="21" fill="url(#sapphire)"/>
      <path d="M42-3c21 9 50 9 71 0" fill="none" stroke="#d6f5ff" stroke-width="5" opacity=".7"/>
    </g>
  </g>
</svg>
