<svg xmlns="http://www.w3.org/2000/svg" width="400" height="560" viewBox="0 0 400 560">
  <defs>
    <linearGradient id="paper" x1="0" y1="0" x2="0" y2="1">
      <stop offset="0" stop-color="#eee2bf"/><stop offset="0.55" stop-color="#c8b98e"/><stop offset="1" stop-color="#796b78"/>
    </linearGradient>
    <radialGradient id="glass" cx="37%" cy="30%" r="67%">
      <stop offset="0" stop-color="#eefcf1"/><stop offset="0.25" stop-color="#91e4d5"/><stop offset="0.6" stop-color="#5074aa"/><stop offset="1" stop-color="#372b69"/>
    </radialGradient>
    <linearGradient id="bronze" x1="0" y1="0" x2="1" y2="1">
      <stop offset="0" stop-color="#f1d579"/><stop offset="0.5" stop-color="#a76535"/><stop offset="1" stop-color="#54313c"/>
    </linearGradient>
    <filter id="shadow" x="-30%" y="-30%" width="160%" height="160%"><feGaussianBlur stdDeviation="8"/></filter>
  </defs>

  <rect x="28" y="27" width="344" height="508" rx="34" fill="#17172c" opacity=".45" filter="url(#shadow)"/>
  <rect x="20" y="18" width="360" height="510" rx="32" fill="#26203e" stroke="#0b0a18" stroke-width="12"/>
  <rect x="34" y="32" width="332" height="482" rx="23" fill="url(#paper)" stroke="#514777" stroke-width="9"/>

  <!-- Korean cloud-and-knot border keeps this in the permanent seal family. -->
  <path d="M50 86Q68 57 94 78Q116 48 144 78Q165 57 187 78Q166 101 140 89Q113 114 86 92Q67 104 50 86Z" fill="#2a6170" stroke="#18334e" stroke-width="7"/>
  <path d="M350 458Q332 487 306 466Q284 496 256 466Q235 487 213 466Q234 443 260 455Q287 430 314 452Q333 440 350 458Z" fill="#2a6170" stroke="#18334e" stroke-width="7"/>
  <path d="M50 119H350M50 427H350" stroke="#403654" stroke-width="11"/>
  <path d="M55 119l18-13 18 13 18-13 18 13 18-13 18 13 18-13 18 13 18-13 18 13 18-13 18 13 18-13 18 13 18-13 18 13" fill="none" stroke="#cda34f" stroke-width="6"/>

  <!-- Three stars communicate the expanded three-slot consumable tray. -->
  <g fill="#efd36b" stroke="#694b38" stroke-width="6" stroke-linejoin="round">
    <path d="M108 158l10 20 22 3-16 15 4 22-20-10-20 10 4-22-16-15 22-3z"/>
    <path d="M200 137l10 20 22 3-16 15 4 22-20-10-20 10 4-22-16-15 22-3z"/>
    <path d="M292 158l10 20 22 3-16 15 4 22-20-10-20 10 4-22-16-15 22-3z"/>
  </g>

  <!-- A large seeing orb and eye remain readable at the 36x52 runtime size. -->
  <circle cx="200" cy="292" r="104" fill="#241d3e" opacity=".35"/>
  <circle cx="200" cy="285" r="92" fill="url(#glass)" stroke="#252043" stroke-width="11"/>
  <path d="M132 286Q200 226 268 286Q200 346 132 286Z" fill="#eee6bf" stroke="#44365f" stroke-width="8"/>
  <ellipse cx="200" cy="286" rx="31" ry="43" fill="#4cc4b6" stroke="#254b68" stroke-width="8"/>
  <ellipse cx="200" cy="286" rx="13" ry="25" fill="#101529"/>
  <circle cx="189" cy="270" r="7" fill="#ffffff" opacity=".9"/>
  <path d="M150 230Q169 210 192 213M245 244Q262 260 257 280" fill="none" stroke="#e8fff3" stroke-width="8" stroke-linecap="round" opacity=".8"/>

  <!-- Bronze stand makes the object read as a crystal ball rather than a loose eye. -->
  <path d="M151 369Q162 398 145 422H255Q238 398 249 369Z" fill="url(#bronze)" stroke="#513247" stroke-width="9"/>
  <path d="M130 421H270L285 450H115Z" fill="#b9783f" stroke="#513247" stroke-width="9" stroke-linejoin="round"/>
  <path d="M145 431H255" stroke="#efd27a" stroke-width="7"/>

  <rect x="281" y="361" width="61" height="61" rx="7" fill="#b63337" stroke="#691c29" stroke-width="8"/>
  <path d="M295 375h33v33h-33zm11 0v33m12-33v33m-23-16h33" fill="none" stroke="#ead69c" stroke-width="6"/>
  <path d="M151 18h98l-13 28h-72z" fill="#cfa653" stroke="#5b3d2d" stroke-width="7"/>
  <circle cx="200" cy="31" r="8" fill="#4b8e91"/>
</svg>